<svg xmlns="http://www.w3.org/2000/svg" width="321.098" height="42.129" viewBox="0 0 321.098 42.129">
  <g id="Group_2919" data-name="Group 2919" transform="translate(-708.309 -3408.2)">
    <g id="Group_365" data-name="Group 365" transform="translate(539 3408.2)">
      <g id="Group_732" data-name="Group 732" transform="translate(169.309 0)">
        <g id="Group_370" data-name="Group 370">
          <g id="Group_264" data-name="Group 264" transform="translate(0 27.074)">
            <path id="Path_53" data-name="Path 53" d="M82.407,19.354a1.6,1.6,0,0,1-.138.725,2.106,2.106,0,0,1-.414.552,2.651,2.651,0,0,1-.621.345,2.014,2.014,0,0,1-.794.1,1.773,1.773,0,0,1-.552-.069v2.175H79.3V17.9a3.4,3.4,0,0,1,.587-.069c.207,0,.414-.035.656-.035a2.1,2.1,0,0,1,1.416.414A1.535,1.535,0,0,1,82.407,19.354Zm-.587.069a.939.939,0,0,0-.345-.829,1.571,1.571,0,0,0-.932-.276,3.178,3.178,0,0,0-.656.069v2.175a2.479,2.479,0,0,0,.587.069,1.51,1.51,0,0,0,1-.311A1.313,1.313,0,0,0,81.821,19.423Z" transform="translate(-79.3 -17.8)" fill="#fff"/>
            <path id="Path_54" data-name="Path 54" d="M92.3,22.852h-.207a.7.7,0,0,0-.38.1,1.119,1.119,0,0,0-.311.276,2.3,2.3,0,0,0-.207.414,2.35,2.35,0,0,0-.069.518v2.072h-.587V22.991A3.35,3.35,0,0,0,90.5,22.4h.518v.76h.035a1.959,1.959,0,0,1,.414-.621,1.09,1.09,0,0,1,.656-.242H92.3v.552Z" transform="translate(-86.633 -20.746)" fill="#fff"/>
            <path id="Path_55" data-name="Path 55" d="M100.015,23.961a.766.766,0,0,1-.035.311H97.322a1.725,1.725,0,0,0,.345,1.07,1.3,1.3,0,0,0,.967.38,2.523,2.523,0,0,0,1.036-.207l.1.449a2.756,2.756,0,0,1-1.243.242,1.756,1.756,0,0,1-.76-.138,1.806,1.806,0,0,1-.587-.414,1.381,1.381,0,0,1-.345-.621,2.719,2.719,0,0,1-.138-.794,2.089,2.089,0,0,1,.138-.829,1.98,1.98,0,0,1,.345-.656,1.662,1.662,0,0,1,.552-.414,1.6,1.6,0,0,1,.725-.138,1.4,1.4,0,0,1,.656.138,1.679,1.679,0,0,1,.483.38,1.751,1.751,0,0,1,.311.552A2.076,2.076,0,0,1,100.015,23.961Zm-.621-.138a1.287,1.287,0,0,0-.242-.863.892.892,0,0,0-.725-.311.826.826,0,0,0-.725.345,1.4,1.4,0,0,0-.345.863l2.037-.035Z" transform="translate(-90.692 -20.681)" fill="#fff"/>
            <path id="Path_56" data-name="Path 56" d="M113.986,26.036H113.4v-2.21c0-.794-.276-1.208-.863-1.208a1.468,1.468,0,0,0-.38.069.931.931,0,0,0-.276.242l-.207.311a1.468,1.468,0,0,0-.069.38V26h-.587V23.654a1.24,1.24,0,0,0-.207-.76.767.767,0,0,0-1-.207,1.9,1.9,0,0,0-.311.242,3.035,3.035,0,0,0-.207.345,1.781,1.781,0,0,0-.069.38V26h-.587v-3.28a2.613,2.613,0,0,0-.035-.518h.518v.621h.069a1.264,1.264,0,0,1,1.208-.691,1.062,1.062,0,0,1,.656.207,1.373,1.373,0,0,1,.414.552h0a1.719,1.719,0,0,1,.518-.587,1.276,1.276,0,0,1,.725-.207,1.012,1.012,0,0,1,.9.449,1.8,1.8,0,0,1,.345,1.208l.035,2.279Z" transform="translate(-98.483 -20.615)" fill="#fff"/>
            <path id="Path_57" data-name="Path 57" d="M128.094,18.314a.482.482,0,0,1-.1.311.422.422,0,0,1-.311.1.392.392,0,0,1-.276-.1.422.422,0,0,1-.1-.311.557.557,0,0,1,.1-.311.392.392,0,0,1,.276-.1.482.482,0,0,1,.311.1A.422.422,0,0,1,128.094,18.314Zm-.1,4.972H127.4V19.454h.587Z" transform="translate(-110.727 -17.865)" fill="#fff"/>
            <path id="Path_58" data-name="Path 58" d="M135.19,26.3v-.621h-.069a1.344,1.344,0,0,1-1.243.725,1.091,1.091,0,0,1-.932-.414,2.051,2.051,0,0,1-.345-1.243V22.5h.587v2.141c0,.863.276,1.278.863,1.278a1.241,1.241,0,0,0,.38-.069.979.979,0,0,0,.311-.207.716.716,0,0,0,.207-.345.876.876,0,0,0,.069-.414V22.5h.587v3.349a2.613,2.613,0,0,0,.035.518h-.449Z" transform="translate(-114.197 -20.877)" fill="#fff"/>
            <path id="Path_59" data-name="Path 59" d="M150.186,26.036H149.6v-2.21c0-.794-.276-1.208-.863-1.208a1.468,1.468,0,0,0-.38.069.931.931,0,0,0-.276.242l-.207.311a1.468,1.468,0,0,0-.069.38V26h-.587V23.654a1.24,1.24,0,0,0-.207-.76.767.767,0,0,0-1-.207,1.9,1.9,0,0,0-.311.242,3.036,3.036,0,0,0-.207.345,1.782,1.782,0,0,0-.069.38V26h-.587v-3.28a2.613,2.613,0,0,0-.035-.518h.518v.621h.069a1.264,1.264,0,0,1,1.208-.691,1.062,1.062,0,0,1,.656.207,1.374,1.374,0,0,1,.414.552h0a1.719,1.719,0,0,1,.518-.587,1.277,1.277,0,0,1,.725-.207,1.012,1.012,0,0,1,.9.449,1.8,1.8,0,0,1,.345,1.208v2.279Z" transform="translate(-122.184 -20.615)" fill="#fff"/>
          </g>
          <g id="Group_265" data-name="Group 265" transform="translate(1.649 36.397)">
            <path id="Path_60" data-name="Path 60" d="M81.828,50.886a9.751,9.751,0,0,1-.345-1.278,1.548,1.548,0,0,0-.38-.829.973.973,0,0,0-.725-.242h-.691v2.348H79.1V45.6a6.96,6.96,0,0,1,1.243-.1,2.387,2.387,0,0,1,1.416.345,1.269,1.269,0,0,1,.483,1.07,1.37,1.37,0,0,1-1,1.381v.035a1.415,1.415,0,0,1,.794,1.1,6.607,6.607,0,0,0,.414,1.45Zm-.138-3.867c0-.691-.414-1.036-1.278-1.036a3.277,3.277,0,0,0-.691.069V48.09h.725a1.393,1.393,0,0,0,.9-.276A1.19,1.19,0,0,0,81.69,47.019Z" transform="translate(-79.1 -45.258)" fill="#fff"/>
            <path id="Path_61" data-name="Path 61" d="M93.515,51.561a.766.766,0,0,1-.035.311H90.822a1.725,1.725,0,0,0,.345,1.07,1.3,1.3,0,0,0,.967.38,2.523,2.523,0,0,0,1.036-.207l.1.449a2.756,2.756,0,0,1-1.243.242,1.756,1.756,0,0,1-.76-.138,1.805,1.805,0,0,1-.587-.414,1.381,1.381,0,0,1-.345-.621,2.719,2.719,0,0,1-.138-.794,2.089,2.089,0,0,1,.138-.829,1.98,1.98,0,0,1,.345-.656,1.662,1.662,0,0,1,.552-.414,1.6,1.6,0,0,1,.725-.138,1.4,1.4,0,0,1,.656.138,1.679,1.679,0,0,1,.483.38,1.751,1.751,0,0,1,.311.552A2.076,2.076,0,0,1,93.515,51.561Zm-.587-.138a1.287,1.287,0,0,0-.242-.863.892.892,0,0,0-.725-.311.826.826,0,0,0-.725.345,1.4,1.4,0,0,0-.345.863l2.037-.035Z" transform="translate(-86.367 -48.074)" fill="#fff"/>
            <path id="Path_62" data-name="Path 62" d="M103.817,52.566a1.051,1.051,0,0,1-.38.829,1.51,1.51,0,0,1-1,.311,2.013,2.013,0,0,1-1.036-.276l.173-.483a1.711,1.711,0,0,0,.9.276.879.879,0,0,0,.552-.173.557.557,0,0,0,.207-.449.572.572,0,0,0-.173-.414,1.951,1.951,0,0,0-.552-.311c-.656-.276-1-.621-1-1.07a.956.956,0,0,1,.1-.449,1.24,1.24,0,0,1,.242-.345,1.426,1.426,0,0,1,.38-.242,1.342,1.342,0,0,1,.518-.069,1.521,1.521,0,0,1,.9.242l-.173.449a1.479,1.479,0,0,0-.76-.207.683.683,0,0,0-.483.173.572.572,0,0,0-.173.414.438.438,0,0,0,.035.207c.035.069.069.1.1.173.069.069.138.1.207.173a3.208,3.208,0,0,0,.345.173C103.472,51.7,103.817,52.082,103.817,52.566Z" transform="translate(-93.7 -48.008)" fill="#fff"/>
            <path id="Path_63" data-name="Path 63" d="M113.415,51.561a.766.766,0,0,1-.035.311h-2.659a1.725,1.725,0,0,0,.345,1.07,1.3,1.3,0,0,0,.967.38,2.523,2.523,0,0,0,1.036-.207l.1.449a2.756,2.756,0,0,1-1.243.242,1.756,1.756,0,0,1-.76-.138,1.805,1.805,0,0,1-.587-.414,1.381,1.381,0,0,1-.345-.621,2.719,2.719,0,0,1-.138-.794,2.089,2.089,0,0,1,.138-.829,1.98,1.98,0,0,1,.345-.656,1.662,1.662,0,0,1,.552-.414,1.6,1.6,0,0,1,.725-.138,1.4,1.4,0,0,1,.656.138,1.679,1.679,0,0,1,.483.38,1.751,1.751,0,0,1,.311.552A2.076,2.076,0,0,1,113.415,51.561Zm-.587-.138a1.287,1.287,0,0,0-.242-.863.892.892,0,0,0-.725-.311.826.826,0,0,0-.725.345,1.4,1.4,0,0,0-.345.863l2.037-.035Z" transform="translate(-99.396 -48.074)" fill="#fff"/>
            <path id="Path_64" data-name="Path 64" d="M122.887,50.428H122.3V44.8h.587v5.628Z" transform="translate(-107.384 -44.8)" fill="#fff"/>
            <path id="Path_65" data-name="Path 65" d="M127.987,50.428H127.4V44.8h.587Z" transform="translate(-110.723 -44.8)" fill="#fff"/>
            <path id="Path_66" data-name="Path 66" d="M134.915,51.561a.766.766,0,0,1-.035.311h-2.659a1.725,1.725,0,0,0,.345,1.07,1.3,1.3,0,0,0,.967.38,2.523,2.523,0,0,0,1.036-.207l.1.449a2.756,2.756,0,0,1-1.243.242,1.756,1.756,0,0,1-.76-.138,1.805,1.805,0,0,1-.587-.414,1.381,1.381,0,0,1-.345-.621,2.719,2.719,0,0,1-.138-.794,2.089,2.089,0,0,1,.138-.829,1.98,1.98,0,0,1,.345-.656,1.662,1.662,0,0,1,.552-.414,1.6,1.6,0,0,1,.725-.138,1.4,1.4,0,0,1,.656.138,1.679,1.679,0,0,1,.483.38,1.751,1.751,0,0,1,.311.552A2.076,2.076,0,0,1,134.915,51.561Zm-.587-.138a1.287,1.287,0,0,0-.242-.863.892.892,0,0,0-.725-.311.826.826,0,0,0-.725.345,1.4,1.4,0,0,0-.345.863l2.037-.035Z" transform="translate(-113.473 -48.074)" fill="#fff"/>
            <path id="Path_67" data-name="Path 67" d="M145.5,50.452h-.207a.7.7,0,0,0-.38.1,1.118,1.118,0,0,0-.311.276,2.3,2.3,0,0,0-.207.414,2.348,2.348,0,0,0-.069.518v2.072h-.587V50.591A3.351,3.351,0,0,0,143.7,50h.518v.76h.035a1.959,1.959,0,0,1,.414-.621,1.09,1.09,0,0,1,.656-.242h.173v.552Z" transform="translate(-121.395 -48.139)" fill="#fff"/>
          </g>
          <path id="Path_68" data-name="Path 68" d="M19.348,15.921a12.237,12.237,0,0,1-1.519,3.107c-.9,1.347-1.864,2.659-3.349,2.693-1.45.035-1.934-.863-3.591-.863s-2.21.829-3.591.9c-1.45.069-2.521-1.45-3.453-2.762C1.98,16.3.53,11.329,2.464,8.014A5.365,5.365,0,0,1,6.987,5.286c1.416-.035,2.728.932,3.591.932s2.486-1.174,4.178-1a5.107,5.107,0,0,1,4.005,2.175,4.9,4.9,0,0,0-2.348,4.143,4.887,4.887,0,0,0,2.935,4.385m-5.7-12.533A4.85,4.85,0,0,0,14.79-.1a4.847,4.847,0,0,0-4.385,5.041A4.09,4.09,0,0,0,13.651,3.387Z" transform="translate(3.399 0.1)" fill="#fff"/>
        </g>
      </g>
      <g id="Group_729" data-name="Group 729" transform="translate(263.309 0)">
        <g id="Group_266" data-name="Group 266" transform="translate(5.496 36.397)">
          <path id="Path_69" data-name="Path 69" d="M81.828,51.686a9.751,9.751,0,0,1-.345-1.278,1.548,1.548,0,0,0-.38-.829.973.973,0,0,0-.725-.242h-.691v2.348H79.1V46.4a6.96,6.96,0,0,1,1.243-.1,2.387,2.387,0,0,1,1.416.345,1.269,1.269,0,0,1,.483,1.07,1.37,1.37,0,0,1-1,1.381v.035a1.415,1.415,0,0,1,.794,1.1,6.607,6.607,0,0,0,.414,1.45Zm-.138-3.867c0-.691-.414-1.036-1.278-1.036a3.277,3.277,0,0,0-.691.069V48.89h.725a1.393,1.393,0,0,0,.9-.276A1.19,1.19,0,0,0,81.69,47.819Z" transform="translate(-79.1 -46.058)" fill="#fff"/>
          <path id="Path_70" data-name="Path 70" d="M93.515,52.361a.766.766,0,0,1-.035.311H90.822a1.725,1.725,0,0,0,.345,1.07,1.3,1.3,0,0,0,.967.38,2.523,2.523,0,0,0,1.036-.207l.1.449a2.756,2.756,0,0,1-1.243.242,1.756,1.756,0,0,1-.76-.138,1.805,1.805,0,0,1-.587-.414,1.381,1.381,0,0,1-.345-.621,2.719,2.719,0,0,1-.138-.794,2.089,2.089,0,0,1,.138-.829,1.98,1.98,0,0,1,.345-.656,1.662,1.662,0,0,1,.552-.414,1.6,1.6,0,0,1,.725-.138,1.4,1.4,0,0,1,.656.138,1.679,1.679,0,0,1,.483.38,1.751,1.751,0,0,1,.311.552A2.076,2.076,0,0,1,93.515,52.361Zm-.587-.138a1.287,1.287,0,0,0-.242-.863.892.892,0,0,0-.725-.311.826.826,0,0,0-.725.345,1.4,1.4,0,0,0-.345.863l2.037-.035Z" transform="translate(-86.367 -48.874)" fill="#fff"/>
          <path id="Path_71" data-name="Path 71" d="M103.817,53.366a1.051,1.051,0,0,1-.38.829,1.51,1.51,0,0,1-1,.311,2.013,2.013,0,0,1-1.036-.276l.173-.483a1.711,1.711,0,0,0,.9.276.879.879,0,0,0,.552-.173.557.557,0,0,0,.207-.449.572.572,0,0,0-.173-.414,1.951,1.951,0,0,0-.552-.311c-.656-.276-1-.621-1-1.07a.956.956,0,0,1,.1-.449,1.241,1.241,0,0,1,.242-.345,1.426,1.426,0,0,1,.38-.242,1.342,1.342,0,0,1,.518-.069,1.521,1.521,0,0,1,.9.242l-.173.449a1.478,1.478,0,0,0-.76-.207.683.683,0,0,0-.483.173.572.572,0,0,0-.173.414.438.438,0,0,0,.035.207c.035.069.069.1.1.173.069.069.138.1.207.173a3.208,3.208,0,0,0,.345.173C103.472,52.5,103.817,52.882,103.817,53.366Z" transform="translate(-93.7 -48.808)" fill="#fff"/>
          <path id="Path_72" data-name="Path 72" d="M113.415,52.361a.766.766,0,0,1-.035.311h-2.659a1.725,1.725,0,0,0,.345,1.07,1.3,1.3,0,0,0,.967.38,2.523,2.523,0,0,0,1.036-.207l.1.449a2.756,2.756,0,0,1-1.243.242,1.756,1.756,0,0,1-.76-.138,1.805,1.805,0,0,1-.587-.414,1.381,1.381,0,0,1-.345-.621,2.719,2.719,0,0,1-.138-.794,2.089,2.089,0,0,1,.138-.829,1.98,1.98,0,0,1,.345-.656,1.662,1.662,0,0,1,.552-.414,1.6,1.6,0,0,1,.725-.138,1.4,1.4,0,0,1,.656.138,1.679,1.679,0,0,1,.483.38,1.751,1.751,0,0,1,.311.552A2.076,2.076,0,0,1,113.415,52.361Zm-.587-.138a1.287,1.287,0,0,0-.242-.863.892.892,0,0,0-.725-.311.826.826,0,0,0-.725.345,1.4,1.4,0,0,0-.345.863l2.037-.035Z" transform="translate(-99.396 -48.874)" fill="#fff"/>
          <path id="Path_73" data-name="Path 73" d="M122.887,51.228H122.3V45.6h.587v5.628Z" transform="translate(-107.384 -45.6)" fill="#fff"/>
          <path id="Path_74" data-name="Path 74" d="M127.987,51.228H127.4V45.6h.587Z" transform="translate(-110.723 -45.6)" fill="#fff"/>
          <path id="Path_75" data-name="Path 75" d="M134.915,52.361a.766.766,0,0,1-.035.311h-2.659a1.725,1.725,0,0,0,.345,1.07,1.3,1.3,0,0,0,.967.38,2.523,2.523,0,0,0,1.036-.207l.1.449a2.756,2.756,0,0,1-1.243.242,1.756,1.756,0,0,1-.76-.138,1.805,1.805,0,0,1-.587-.414,1.381,1.381,0,0,1-.345-.621,2.719,2.719,0,0,1-.138-.794,2.089,2.089,0,0,1,.138-.829,1.98,1.98,0,0,1,.345-.656,1.662,1.662,0,0,1,.552-.414,1.6,1.6,0,0,1,.725-.138,1.4,1.4,0,0,1,.656.138,1.679,1.679,0,0,1,.483.38,1.751,1.751,0,0,1,.311.552A2.076,2.076,0,0,1,134.915,52.361Zm-.587-.138a1.287,1.287,0,0,0-.242-.863.892.892,0,0,0-.725-.311.826.826,0,0,0-.725.345,1.4,1.4,0,0,0-.345.863l2.037-.035Z" transform="translate(-113.473 -48.874)" fill="#fff"/>
          <path id="Path_76" data-name="Path 76" d="M145.5,51.252h-.207a.7.7,0,0,0-.38.1,1.118,1.118,0,0,0-.311.276,2.3,2.3,0,0,0-.207.414,2.348,2.348,0,0,0-.069.518v2.072h-.587V51.391a3.351,3.351,0,0,0-.035-.587h.518v.76h.035a1.959,1.959,0,0,1,.414-.621,1.09,1.09,0,0,1,.656-.242h.173v.552Z" transform="translate(-121.395 -48.939)" fill="#fff"/>
        </g>
        <path id="Path_77" data-name="Path 77" d="M19.348,16.721a12.237,12.237,0,0,1-1.519,3.107c-.9,1.347-1.864,2.659-3.349,2.693-1.45.035-1.934-.863-3.591-.863s-2.21.829-3.591.9c-1.45.069-2.521-1.45-3.453-2.762C1.98,17.1.53,12.129,2.464,8.814A5.365,5.365,0,0,1,6.987,6.086c1.416-.035,2.728.932,3.591.932s2.486-1.174,4.178-1a5.107,5.107,0,0,1,4.005,2.175,4.9,4.9,0,0,0-2.348,4.143,4.887,4.887,0,0,0,2.935,4.385m-5.7-12.533A4.85,4.85,0,0,0,14.79.7a4.847,4.847,0,0,0-4.385,5.041A4.09,4.09,0,0,0,13.651,4.187Z" transform="translate(6.697 -0.7)" fill="#fff"/>
        <g id="Group_267" data-name="Group 267" transform="translate(0 26.902)">
          <path id="Path_78" data-name="Path 78" d="M82.794,24.252l-.587-1.726h-1.9l-.587,1.726H79.1L80.9,18.9h.691l1.8,5.352Zm-2.348-2.21H82.1l-.552-1.588c-.035-.1-.069-.242-.138-.414a2.448,2.448,0,0,1-.138-.587h0c-.069.207-.1.414-.138.552a1.165,1.165,0,0,1-.138.414Z" transform="translate(-79.1 -18.624)" fill="#fff"/>
          <path id="Path_79" data-name="Path 79" d="M96.19,27.2v-.621h-.069a1.344,1.344,0,0,1-1.243.725,1.091,1.091,0,0,1-.932-.414,2.05,2.05,0,0,1-.345-1.243V23.4h.587v2.141c0,.863.276,1.278.863,1.278a1.241,1.241,0,0,0,.38-.069.98.98,0,0,0,.311-.207.716.716,0,0,0,.207-.345.876.876,0,0,0,.069-.414V23.4H96.6v3.349a2.613,2.613,0,0,0,.035.518H96.19Z" transform="translate(-88.594 -21.57)" fill="#fff"/>
          <path id="Path_80" data-name="Path 80" d="M106.875,22.047h-1v2.175c0,.518.173.76.518.76a1.288,1.288,0,0,0,.414-.069l.035.483a1.488,1.488,0,0,1-.587.1.989.989,0,0,1-.725-.276,1.477,1.477,0,0,1-.242-.967V22.081H104.7V21.6h.587v-.691l.587-.207v.9h1Z" transform="translate(-95.861 -19.802)" fill="#fff"/>
          <path id="Path_81" data-name="Path 81" d="M116.573,23.793h-.621V21.549c0-.794-.311-1.174-.9-1.174a.7.7,0,0,0-.38.1.752.752,0,0,0-.311.242.716.716,0,0,0-.207.345.876.876,0,0,0-.069.414v2.348H113.5V18.2h.587v2.417h0a1.487,1.487,0,0,1,.518-.518,1.213,1.213,0,0,1,.691-.173,1.254,1.254,0,0,1,.967.414,1.763,1.763,0,0,1,.345,1.174l-.035,2.279Z" transform="translate(-101.623 -18.165)" fill="#fff"/>
          <path id="Path_82" data-name="Path 82" d="M128.46,24.968a2.09,2.09,0,0,1-.138.829,2.5,2.5,0,0,1-.38.656,1.805,1.805,0,0,1-.587.414,1.858,1.858,0,0,1-.76.138,1.6,1.6,0,0,1-.725-.138,1.662,1.662,0,0,1-.552-.414,1.88,1.88,0,0,1-.38-.621,2.026,2.026,0,0,1-.138-.794,2.2,2.2,0,0,1,.138-.829,2.5,2.5,0,0,1,.38-.656,1.406,1.406,0,0,1,.587-.414,1.858,1.858,0,0,1,.76-.138,1.6,1.6,0,0,1,.725.138,1.662,1.662,0,0,1,.552.414,1.381,1.381,0,0,1,.345.621A1.655,1.655,0,0,1,128.46,24.968Zm-.622.035a3.042,3.042,0,0,0-.069-.587,2.109,2.109,0,0,0-.242-.483,1.079,1.079,0,0,0-.38-.311,1.18,1.18,0,0,0-.967,0,1.079,1.079,0,0,0-.38.311,2.109,2.109,0,0,0-.242.483,1.715,1.715,0,0,0-.069.621,1.613,1.613,0,0,0,.1.587,2.109,2.109,0,0,0,.242.483,1.81,1.81,0,0,0,.38.345,1.124,1.124,0,0,0,.483.138,1.1,1.1,0,0,0,.483-.1.9.9,0,0,0,.38-.345,2.109,2.109,0,0,0,.242-.483C127.8,25.417,127.838,25.21,127.838,25Z" transform="translate(-109.021 -21.308)" fill="#fff"/>
          <path id="Path_83" data-name="Path 83" d="M139.8,23.752h-.207a.7.7,0,0,0-.38.1,1.118,1.118,0,0,0-.311.276,2.3,2.3,0,0,0-.207.414,2.348,2.348,0,0,0-.069.518v2.072h-.587V23.891A3.35,3.35,0,0,0,138,23.3h.518v.76h.035a1.959,1.959,0,0,1,.414-.621,1.09,1.09,0,0,1,.656-.242h.173v.552Z" transform="translate(-117.663 -21.439)" fill="#fff"/>
          <path id="Path_84" data-name="Path 84" d="M145.794,19.214a.482.482,0,0,1-.1.311.422.422,0,0,1-.311.1.392.392,0,0,1-.276-.1.422.422,0,0,1-.1-.311.557.557,0,0,1,.1-.311.392.392,0,0,1,.276-.1.482.482,0,0,1,.311.1A.422.422,0,0,1,145.794,19.214Zm-.1,4.972H145.1V20.354h.587Z" transform="translate(-122.246 -18.558)" fill="#fff"/>
          <path id="Path_85" data-name="Path 85" d="M162.115,24.861a.766.766,0,0,1-.035.311h-2.659a1.725,1.725,0,0,0,.345,1.07,1.3,1.3,0,0,0,.967.38,2.523,2.523,0,0,0,1.036-.207l.1.449a2.756,2.756,0,0,1-1.243.242,1.756,1.756,0,0,1-.76-.138,1.805,1.805,0,0,1-.587-.414,1.381,1.381,0,0,1-.345-.621,2.719,2.719,0,0,1-.138-.794,2.089,2.089,0,0,1,.138-.829,1.98,1.98,0,0,1,.345-.656,1.662,1.662,0,0,1,.552-.414,1.6,1.6,0,0,1,.725-.138,1.4,1.4,0,0,1,.656.138,1.679,1.679,0,0,1,.483.38,1.751,1.751,0,0,1,.311.552A2.076,2.076,0,0,1,162.115,24.861Zm-.621-.138a1.287,1.287,0,0,0-.242-.863.892.892,0,0,0-.725-.311.826.826,0,0,0-.725.345,1.4,1.4,0,0,0-.345.863l2.037-.035Z" transform="translate(-131.282 -21.374)" fill="#fff"/>
          <path id="Path_86" data-name="Path 86" d="M172.969,23.728v-.656h-.035a1.3,1.3,0,0,1-1.278.76,1.4,1.4,0,0,1-.656-.138,1.529,1.529,0,0,1-.518-.414,2.651,2.651,0,0,1-.345-.621,2.72,2.72,0,0,1-.138-.794,2.09,2.09,0,0,1,.138-.829,2.927,2.927,0,0,1,.345-.656,1.662,1.662,0,0,1,.552-.414,1.546,1.546,0,0,1,.691-.138,1.192,1.192,0,0,1,1.139.587h0V18.1h.587v5.145a1.825,1.825,0,0,0,.035.449h-.518v.035Zm-.069-2.279a1.749,1.749,0,0,0-.069-.449,1.339,1.339,0,0,0-.207-.38,1.24,1.24,0,0,0-.345-.242.876.876,0,0,0-.414-.069,1.1,1.1,0,0,0-.483.1,1.079,1.079,0,0,0-.38.311,2.109,2.109,0,0,0-.242.483,1.912,1.912,0,0,0-.069.621,3.806,3.806,0,0,0,.069.621,2.109,2.109,0,0,0,.242.483.844.844,0,0,0,.38.311,1.219,1.219,0,0,0,.483.1.956.956,0,0,0,.449-.1,1.24,1.24,0,0,0,.345-.242.823.823,0,0,0,.207-.38,1.75,1.75,0,0,0,.069-.449l-.035-.725Z" transform="translate(-138.615 -18.1)" fill="#fff"/>
        </g>
        <path id="Path_87" data-name="Path 87" d="M152.417,25.866a1.051,1.051,0,0,1-.38.829,1.51,1.51,0,0,1-1,.311A2.013,2.013,0,0,1,150,26.729l.173-.483a1.711,1.711,0,0,0,.9.276.879.879,0,0,0,.552-.173.557.557,0,0,0,.207-.449.572.572,0,0,0-.173-.414,1.951,1.951,0,0,0-.552-.311c-.656-.276-1-.621-1-1.07a.956.956,0,0,1,.1-.449,1.24,1.24,0,0,1,.242-.345,1.426,1.426,0,0,1,.38-.242,1.342,1.342,0,0,1,.518-.069,1.521,1.521,0,0,1,.9.242l-.173.449a1.479,1.479,0,0,0-.76-.207.683.683,0,0,0-.483.173.572.572,0,0,0-.173.414.438.438,0,0,0,.035.207c.035.069.069.1.1.173.069.069.138.1.207.173a3.207,3.207,0,0,0,.345.173C152.072,25,152.417,25.382,152.417,25.866Z" transform="translate(-125.676 5.594)" fill="#fff"/>
      </g>
      <g id="Group_730" data-name="Group 730" transform="translate(351.309 0)">
        <g id="Group_269" data-name="Group 269" transform="translate(0 36.397)">
          <path id="Path_97" data-name="Path 97" d="M81.707,51.605a1.182,1.182,0,0,1-.138.621,2.451,2.451,0,0,1-.345.483,1.44,1.44,0,0,1-.552.311,2.526,2.526,0,0,1-.76.1,2.116,2.116,0,0,1-1.312-.345l.173-.483a2.328,2.328,0,0,0,1.174.345,1.292,1.292,0,0,0,.863-.276.869.869,0,0,0,.311-.691.86.86,0,0,0-.242-.656,2.2,2.2,0,0,0-.76-.449c-.932-.345-1.381-.863-1.381-1.519a1.22,1.22,0,0,1,.138-.587,1.424,1.424,0,0,1,.345-.449,1.3,1.3,0,0,1,.518-.311,2.01,2.01,0,0,1,.656-.1,2.317,2.317,0,0,1,1.139.242l-.173.483a1.752,1.752,0,0,0-.967-.242,1.116,1.116,0,0,0-.76.242.673.673,0,0,0-.276.621.766.766,0,0,0,.035.311,1.211,1.211,0,0,0,.173.276.752.752,0,0,0,.311.242,3.709,3.709,0,0,0,.518.242,5.194,5.194,0,0,1,.621.311,2.189,2.189,0,0,1,.414.345,2.575,2.575,0,0,1,.242.414C81.673,51.26,81.707,51.433,81.707,51.605Z" transform="translate(-78.6 -47.427)" fill="#fff"/>
          <path id="Path_98" data-name="Path 98" d="M92.815,53.861a.766.766,0,0,1-.035.311H90.122a1.725,1.725,0,0,0,.345,1.07,1.3,1.3,0,0,0,.967.38,2.523,2.523,0,0,0,1.036-.207l.1.449a2.756,2.756,0,0,1-1.243.242,1.756,1.756,0,0,1-.76-.138,1.806,1.806,0,0,1-.587-.414,1.381,1.381,0,0,1-.345-.621,2.719,2.719,0,0,1-.138-.794,2.089,2.089,0,0,1,.138-.829,1.98,1.98,0,0,1,.345-.656,1.662,1.662,0,0,1,.552-.414,1.6,1.6,0,0,1,.725-.138,1.4,1.4,0,0,1,.656.138,1.679,1.679,0,0,1,.483.38,1.751,1.751,0,0,1,.311.552A2.076,2.076,0,0,1,92.815,53.861Zm-.621-.138a1.287,1.287,0,0,0-.242-.863.892.892,0,0,0-.725-.311.826.826,0,0,0-.725.345,1.4,1.4,0,0,0-.345.863l2.037-.035Z" transform="translate(-85.737 -50.374)" fill="#fff"/>
          <path id="Path_99" data-name="Path 99" d="M103.4,52.752h-.207a.7.7,0,0,0-.38.1,1.119,1.119,0,0,0-.311.276,2.3,2.3,0,0,0-.207.414,2.349,2.349,0,0,0-.069.518v2.072h-.587V52.891a3.35,3.35,0,0,0-.035-.587h.518v.76h.035a1.959,1.959,0,0,1,.414-.621,1.09,1.09,0,0,1,.656-.242h.173v.552Z" transform="translate(-93.659 -50.439)" fill="#fff"/>
          <path id="Path_100" data-name="Path 100" d="M111.587,52.3,110.1,56.133h-.552L108.1,52.3h.656l.76,2.21a4.755,4.755,0,0,0,.207.552c.069.173.1.311.138.414h0c.035-.1.069-.242.1-.38s.138-.345.207-.587l.794-2.21Z" transform="translate(-97.914 -50.505)" fill="#fff"/>
          <path id="Path_101" data-name="Path 101" d="M120.594,48.214a.482.482,0,0,1-.1.311.422.422,0,0,1-.311.1.392.392,0,0,1-.276-.1.422.422,0,0,1-.1-.311.557.557,0,0,1,.1-.311.392.392,0,0,1,.276-.1.482.482,0,0,1,.311.1A.319.319,0,0,1,120.594,48.214Zm-.1,4.972H119.9V49.354h.587Z" transform="translate(-105.575 -47.558)" fill="#fff"/>
          <path id="Path_102" data-name="Path 102" d="M127.2,52.625a1.662,1.662,0,0,0-1.381-.1.943.943,0,0,0-.414.311,2.2,2.2,0,0,0-.276.483,1.613,1.613,0,0,0-.1.587,1.955,1.955,0,0,0,.1.621,2.2,2.2,0,0,0,.276.483,1.191,1.191,0,0,0,.414.311,1.431,1.431,0,0,0,.552.1,2.1,2.1,0,0,0,.863-.207l.1.449a2.574,2.574,0,0,1-1.07.207,1.858,1.858,0,0,1-.76-.138,2.458,2.458,0,0,1-.587-.38,1.879,1.879,0,0,1-.38-.621,2.026,2.026,0,0,1-.138-.794,2.089,2.089,0,0,1,.138-.829,2.627,2.627,0,0,1,.414-.656,1.959,1.959,0,0,1,.622-.414,2.445,2.445,0,0,1,1.8.069Z" transform="translate(-108.586 -50.243)" fill="#fff"/>
          <path id="Path_103" data-name="Path 103" d="M137.515,53.861a.767.767,0,0,1-.035.311h-2.659a1.725,1.725,0,0,0,.345,1.07,1.3,1.3,0,0,0,.967.38,2.523,2.523,0,0,0,1.036-.207l.1.449a2.756,2.756,0,0,1-1.243.242,1.756,1.756,0,0,1-.76-.138,1.806,1.806,0,0,1-.587-.414,1.381,1.381,0,0,1-.345-.621,2.719,2.719,0,0,1-.138-.794,2.089,2.089,0,0,1,.138-.829,1.98,1.98,0,0,1,.345-.656,1.662,1.662,0,0,1,.552-.414,1.6,1.6,0,0,1,.725-.138,1.4,1.4,0,0,1,.656.138,1.679,1.679,0,0,1,.483.38,1.751,1.751,0,0,1,.311.552A2.076,2.076,0,0,1,137.515,53.861Zm-.587-.138a1.287,1.287,0,0,0-.242-.863.892.892,0,0,0-.725-.311.826.826,0,0,0-.725.345,1.4,1.4,0,0,0-.345.863l2.037-.035Z" transform="translate(-115.003 -50.374)" fill="#fff"/>
          <path id="Path_104" data-name="Path 104" d="M155.207,49.254a1.6,1.6,0,0,1-.138.725,2.106,2.106,0,0,1-.414.552,2.65,2.65,0,0,1-.621.345,2.014,2.014,0,0,1-.794.1,1.774,1.774,0,0,1-.552-.069v2.175H152.1V47.8a3.4,3.4,0,0,1,.587-.069c.207,0,.414-.035.656-.035a2.1,2.1,0,0,1,1.416.414A1.535,1.535,0,0,1,155.207,49.254Zm-.587.069a.939.939,0,0,0-.345-.829,1.571,1.571,0,0,0-.932-.276,3.178,3.178,0,0,0-.656.069v2.175a2.479,2.479,0,0,0,.587.069,1.51,1.51,0,0,0,1-.311A1.313,1.313,0,0,0,154.62,49.323Z" transform="translate(-126.722 -47.493)" fill="#fff"/>
          <path id="Path_105" data-name="Path 105" d="M165.2,52.752h-.207a.7.7,0,0,0-.38.1,1.119,1.119,0,0,0-.311.276,2.3,2.3,0,0,0-.207.414,2.348,2.348,0,0,0-.069.518v2.072h-.587V52.891a3.35,3.35,0,0,0-.035-.587h.518v.76h.035a1.959,1.959,0,0,1,.414-.621,1.09,1.09,0,0,1,.656-.242h.173Z" transform="translate(-134.121 -50.439)" fill="#fff"/>
          <path id="Path_106" data-name="Path 106" d="M173.16,53.968a2.09,2.09,0,0,1-.138.829,2.5,2.5,0,0,1-.38.656,1.806,1.806,0,0,1-.587.414,1.858,1.858,0,0,1-.76.138,1.6,1.6,0,0,1-.725-.138,1.662,1.662,0,0,1-.552-.414,1.88,1.88,0,0,1-.38-.621,2.026,2.026,0,0,1-.138-.794,2.2,2.2,0,0,1,.138-.829,2.5,2.5,0,0,1,.38-.656,1.406,1.406,0,0,1,.587-.414,1.858,1.858,0,0,1,.76-.138,1.6,1.6,0,0,1,.725.138,1.662,1.662,0,0,1,.552.414,1.381,1.381,0,0,1,.345.621A1.656,1.656,0,0,1,173.16,53.968Zm-.622.035a3.042,3.042,0,0,0-.069-.587,2.109,2.109,0,0,0-.242-.483,1.079,1.079,0,0,0-.38-.311,1.18,1.18,0,0,0-.967,0,1.079,1.079,0,0,0-.38.311,2.109,2.109,0,0,0-.242.483,1.714,1.714,0,0,0-.069.621,1.613,1.613,0,0,0,.1.587,2.109,2.109,0,0,0,.242.483,1.809,1.809,0,0,0,.38.345,1.124,1.124,0,0,0,.483.138,1.1,1.1,0,0,0,.483-.1.9.9,0,0,0,.38-.345,2.11,2.11,0,0,0,.242-.483C172.5,54.417,172.538,54.21,172.538,54Z" transform="translate(-138.115 -50.308)" fill="#fff"/>
          <path id="Path_107" data-name="Path 107" d="M184.587,52.3,183.1,56.133h-.552L181.1,52.3h.656l.76,2.21a4.752,4.752,0,0,0,.207.552c.069.173.1.311.138.414h0c.035-.1.069-.242.1-.38s.138-.345.207-.587l.794-2.21Z" transform="translate(-145.709 -50.505)" fill="#fff"/>
          <path id="Path_108" data-name="Path 108" d="M193.694,48.214a.482.482,0,0,1-.1.311.422.422,0,0,1-.311.1.392.392,0,0,1-.276-.1.422.422,0,0,1-.1-.311.557.557,0,0,1,.1-.311.392.392,0,0,1,.276-.1.482.482,0,0,1,.311.1A.422.422,0,0,1,193.694,48.214Zm-.1,4.972H193V49.354h.587Z" transform="translate(-153.435 -47.558)" fill="#fff"/>
          <path id="Path_109" data-name="Path 109" d="M200.369,52.728v-.656h-.035a1.3,1.3,0,0,1-1.278.76,1.4,1.4,0,0,1-.656-.138,1.529,1.529,0,0,1-.518-.414,2.651,2.651,0,0,1-.345-.621,2.719,2.719,0,0,1-.138-.794,2.089,2.089,0,0,1,.138-.829,2.927,2.927,0,0,1,.345-.656,1.662,1.662,0,0,1,.552-.414,1.546,1.546,0,0,1,.691-.138,1.192,1.192,0,0,1,1.139.587h0V47.1h.587v5.145a1.823,1.823,0,0,0,.035.449l-.518.035Zm-.1-2.279A1.749,1.749,0,0,0,200.2,50a1.339,1.339,0,0,0-.207-.38,1.24,1.24,0,0,0-.345-.242.876.876,0,0,0-.414-.069,1.1,1.1,0,0,0-.483.1,1.079,1.079,0,0,0-.38.311,2.109,2.109,0,0,0-.242.483,1.912,1.912,0,0,0-.069.621,3.8,3.8,0,0,0,.069.621,2.109,2.109,0,0,0,.242.483.844.844,0,0,0,.38.311,1.219,1.219,0,0,0,.483.1.956.956,0,0,0,.449-.1,1.241,1.241,0,0,0,.345-.242.823.823,0,0,0,.207-.38,1.749,1.749,0,0,0,.069-.449l-.035-.725Z" transform="translate(-156.381 -47.1)" fill="#fff"/>
          <path id="Path_110" data-name="Path 110" d="M213.215,53.861a.766.766,0,0,1-.035.311h-2.659a1.725,1.725,0,0,0,.345,1.07,1.3,1.3,0,0,0,.967.38,2.523,2.523,0,0,0,1.036-.207l.1.449a2.756,2.756,0,0,1-1.243.242,1.756,1.756,0,0,1-.76-.138,1.806,1.806,0,0,1-.587-.414,1.381,1.381,0,0,1-.345-.621,2.72,2.72,0,0,1-.138-.794,2.089,2.089,0,0,1,.138-.829,1.98,1.98,0,0,1,.345-.656,1.662,1.662,0,0,1,.552-.414,1.6,1.6,0,0,1,.725-.138,1.4,1.4,0,0,1,.656.138,1.679,1.679,0,0,1,.483.38,1.751,1.751,0,0,1,.311.552A2.076,2.076,0,0,1,213.215,53.861Zm-.587-.138a1.287,1.287,0,0,0-.242-.863.892.892,0,0,0-.725-.311.826.826,0,0,0-.725.345,1.4,1.4,0,0,0-.345.863l2.037-.035Z" transform="translate(-164.565 -50.374)" fill="#fff"/>
          <path id="Path_111" data-name="Path 111" d="M223.9,52.752h-.207a.7.7,0,0,0-.38.1,1.119,1.119,0,0,0-.311.276,2.3,2.3,0,0,0-.207.414,2.35,2.35,0,0,0-.069.518v2.072h-.587V52.891a3.348,3.348,0,0,0-.035-.587h.518v.76h.035a1.959,1.959,0,0,1,.414-.621,1.09,1.09,0,0,1,.656-.242h.173Z" transform="translate(-172.553 -50.439)" fill="#fff"/>
        </g>
        <path id="Path_112" data-name="Path 112" d="M19.548,18.221a12.237,12.237,0,0,1-1.519,3.107c-.9,1.347-1.864,2.659-3.349,2.693-1.45.035-1.934-.863-3.591-.863s-2.21.829-3.591.9c-1.45.069-2.521-1.45-3.453-2.762C2.18,18.6.73,13.629,2.664,10.314A5.365,5.365,0,0,1,7.187,7.586c1.416-.035,2.728.932,3.591.932s2.486-1.174,4.178-1a5.107,5.107,0,0,1,4.005,2.175,4.783,4.783,0,0,0,.587,8.528m-5.7-12.533A4.85,4.85,0,0,0,14.99,2.2a4.847,4.847,0,0,0-4.385,5.041A4.09,4.09,0,0,0,13.851,5.687Z" transform="translate(15.291 -2.2)" fill="#fff"/>
        <g id="Group_371" data-name="Group 371" transform="translate(8.245 26.867)">
          <g id="Group_268" data-name="Group 268">
            <path id="Path_88" data-name="Path 88" d="M81.894,25.652l-.587-1.726h-1.9l-.587,1.726H78.2L80,20.3h.691l1.8,5.352Zm-2.348-2.21H81.2l-.552-1.588c-.035-.1-.069-.242-.138-.414a2.447,2.447,0,0,1-.138-.587h0c-.069.207-.1.414-.138.552a1.165,1.165,0,0,1-.138.414Z" transform="translate(-78.2 -20.024)" fill="#fff"/>
            <path id="Path_89" data-name="Path 89" d="M95.29,28.6v-.621h-.069a1.344,1.344,0,0,1-1.243.725,1.091,1.091,0,0,1-.932-.414,2.05,2.05,0,0,1-.345-1.243V24.8h.587v2.141c0,.863.276,1.278.863,1.278a1.241,1.241,0,0,0,.38-.069.98.98,0,0,0,.311-.207.716.716,0,0,0,.207-.345.876.876,0,0,0,.069-.414V24.8H95.7v3.349a2.614,2.614,0,0,0,.035.518H95.29Z" transform="translate(-87.694 -22.97)" fill="#fff"/>
            <path id="Path_90" data-name="Path 90" d="M105.975,23.447h-1v2.175c0,.518.173.76.518.76a1.288,1.288,0,0,0,.414-.069l.035.483a1.488,1.488,0,0,1-.587.1.989.989,0,0,1-.725-.276,1.477,1.477,0,0,1-.242-.967V23.481H103.8V23h.587v-.691l.587-.207V23h1Z" transform="translate(-94.961 -21.202)" fill="#fff"/>
            <path id="Path_91" data-name="Path 91" d="M115.673,25.193h-.621V22.949c0-.794-.311-1.174-.9-1.174a.7.7,0,0,0-.38.1.752.752,0,0,0-.311.242.716.716,0,0,0-.207.345.876.876,0,0,0-.069.414v2.348H112.6V19.6h.587v2.417h0a1.487,1.487,0,0,1,.518-.518,1.213,1.213,0,0,1,.691-.173,1.254,1.254,0,0,1,.967.414,1.763,1.763,0,0,1,.345,1.174l-.035,2.279Z" transform="translate(-100.723 -19.565)" fill="#fff"/>
            <path id="Path_92" data-name="Path 92" d="M127.56,26.368a2.089,2.089,0,0,1-.138.829,2.5,2.5,0,0,1-.38.656,1.805,1.805,0,0,1-.587.414,1.858,1.858,0,0,1-.76.138,1.6,1.6,0,0,1-.725-.138,1.662,1.662,0,0,1-.552-.414,1.88,1.88,0,0,1-.38-.621,2.026,2.026,0,0,1-.138-.794,2.2,2.2,0,0,1,.138-.829,2.5,2.5,0,0,1,.38-.656,1.406,1.406,0,0,1,.587-.414,1.858,1.858,0,0,1,.76-.138,1.6,1.6,0,0,1,.725.138,1.662,1.662,0,0,1,.552.414,1.381,1.381,0,0,1,.345.621A1.655,1.655,0,0,1,127.56,26.368Zm-.622.035a3.041,3.041,0,0,0-.069-.587,2.109,2.109,0,0,0-.242-.483,1.079,1.079,0,0,0-.38-.311,1.18,1.18,0,0,0-.967,0,1.079,1.079,0,0,0-.38.311,2.11,2.11,0,0,0-.242.483,1.715,1.715,0,0,0-.069.621,1.613,1.613,0,0,0,.1.587,2.109,2.109,0,0,0,.242.483,1.809,1.809,0,0,0,.38.345,1.124,1.124,0,0,0,.483.138,1.1,1.1,0,0,0,.483-.1.9.9,0,0,0,.38-.345,2.11,2.11,0,0,0,.242-.483C126.9,26.817,126.938,26.61,126.938,26.4Z" transform="translate(-108.121 -22.708)" fill="#fff"/>
            <path id="Path_93" data-name="Path 93" d="M138.9,25.152h-.207a.7.7,0,0,0-.38.1,1.119,1.119,0,0,0-.311.276,2.3,2.3,0,0,0-.207.414,2.348,2.348,0,0,0-.069.518v2.072h-.587V25.291a3.35,3.35,0,0,0-.035-.587h.518v.76h.035a1.959,1.959,0,0,1,.414-.621,1.09,1.09,0,0,1,.656-.242h.173v.552Z" transform="translate(-116.763 -22.839)" fill="#fff"/>
            <path id="Path_94" data-name="Path 94" d="M144.894,20.614a.482.482,0,0,1-.1.311.422.422,0,0,1-.311.1.392.392,0,0,1-.276-.1.422.422,0,0,1-.1-.311.557.557,0,0,1,.1-.311.392.392,0,0,1,.276-.1.482.482,0,0,1,.311.1A.422.422,0,0,1,144.894,20.614Zm-.1,4.972H144.2V21.754h.587Z" transform="translate(-121.346 -19.958)" fill="#fff"/>
            <path id="Path_95" data-name="Path 95" d="M161.215,26.261a.766.766,0,0,1-.035.311h-2.659a1.725,1.725,0,0,0,.345,1.07,1.3,1.3,0,0,0,.967.38,2.523,2.523,0,0,0,1.036-.207l.1.449a2.756,2.756,0,0,1-1.243.242,1.756,1.756,0,0,1-.76-.138,1.806,1.806,0,0,1-.587-.414,1.381,1.381,0,0,1-.345-.621,2.719,2.719,0,0,1-.138-.794,2.089,2.089,0,0,1,.138-.829,1.979,1.979,0,0,1,.345-.656,1.662,1.662,0,0,1,.552-.414,1.6,1.6,0,0,1,.725-.138,1.4,1.4,0,0,1,.656.138,1.679,1.679,0,0,1,.483.38,1.751,1.751,0,0,1,.311.552A2.077,2.077,0,0,1,161.215,26.261Zm-.621-.138a1.287,1.287,0,0,0-.242-.863.892.892,0,0,0-.725-.311.826.826,0,0,0-.725.345,1.4,1.4,0,0,0-.345.863l2.037-.035Z" transform="translate(-130.382 -22.774)" fill="#fff"/>
            <path id="Path_96" data-name="Path 96" d="M172.069,25.128v-.656h-.035a1.3,1.3,0,0,1-1.277.76,1.4,1.4,0,0,1-.656-.138,1.529,1.529,0,0,1-.518-.414,2.651,2.651,0,0,1-.345-.621,2.72,2.72,0,0,1-.138-.794,2.089,2.089,0,0,1,.138-.829,2.927,2.927,0,0,1,.345-.656,1.662,1.662,0,0,1,.552-.414,1.546,1.546,0,0,1,.691-.138,1.192,1.192,0,0,1,1.139.587h0V19.5h.587v5.145a1.825,1.825,0,0,0,.035.449h-.518ZM172,22.849a1.749,1.749,0,0,0-.069-.449,1.34,1.34,0,0,0-.207-.38,1.24,1.24,0,0,0-.345-.242.876.876,0,0,0-.414-.069,1.1,1.1,0,0,0-.483.1,1.079,1.079,0,0,0-.38.311,2.11,2.11,0,0,0-.242.483,1.912,1.912,0,0,0-.069.621,3.808,3.808,0,0,0,.069.621,2.11,2.11,0,0,0,.242.483.844.844,0,0,0,.38.311,1.219,1.219,0,0,0,.483.1.956.956,0,0,0,.449-.1,1.24,1.24,0,0,0,.345-.242.823.823,0,0,0,.207-.38,1.75,1.75,0,0,0,.069-.449L172,22.849Z" transform="translate(-137.715 -19.5)" fill="#fff"/>
          </g>
          <path id="Path_113" data-name="Path 113" d="M151.417,27.266a1.051,1.051,0,0,1-.38.829,1.51,1.51,0,0,1-1,.311A2.013,2.013,0,0,1,149,28.129l.173-.483a1.711,1.711,0,0,0,.9.276.879.879,0,0,0,.552-.173.557.557,0,0,0,.207-.449.572.572,0,0,0-.173-.414,1.951,1.951,0,0,0-.552-.311c-.656-.276-1-.621-1-1.07a.956.956,0,0,1,.1-.449,1.24,1.24,0,0,1,.242-.345,1.425,1.425,0,0,1,.38-.242,1.342,1.342,0,0,1,.518-.069,1.521,1.521,0,0,1,.9.242l-.173.449a1.479,1.479,0,0,0-.76-.207.683.683,0,0,0-.483.173.572.572,0,0,0-.173.414.438.438,0,0,0,.035.207c.035.069.069.1.1.173.069.069.138.1.207.173a3.206,3.206,0,0,0,.345.173C151.072,26.4,151.417,26.782,151.417,27.266Z" transform="translate(-124.555 -22.708)" fill="#fff"/>
        </g>
      </g>
      <g id="Group_731" data-name="Group 731" transform="translate(441.309)">
        <g id="Group_279" data-name="Group 279" transform="translate(0 26.868)">
          <path id="Path_123" data-name="Path 123" d="M80.007,21.705a1.182,1.182,0,0,1-.138.621,2.45,2.45,0,0,1-.345.483,1.44,1.44,0,0,1-.552.311,2.526,2.526,0,0,1-.76.1,2.116,2.116,0,0,1-1.312-.345l.173-.483a2.328,2.328,0,0,0,1.174.345,1.292,1.292,0,0,0,.863-.276.869.869,0,0,0,.311-.691.86.86,0,0,0-.242-.656,2.2,2.2,0,0,0-.76-.449c-.932-.345-1.381-.863-1.381-1.519a1.22,1.22,0,0,1,.138-.587,1.424,1.424,0,0,1,.345-.449,1.3,1.3,0,0,1,.518-.311,2.01,2.01,0,0,1,.656-.1,2.317,2.317,0,0,1,1.139.242l-.173.483a1.752,1.752,0,0,0-.967-.242,1.116,1.116,0,0,0-.76.242.673.673,0,0,0-.276.621.766.766,0,0,0,.035.311,1.211,1.211,0,0,0,.173.276.752.752,0,0,0,.311.242,3.709,3.709,0,0,0,.518.242,5.2,5.2,0,0,1,.621.311,2.19,2.19,0,0,1,.414.345,2.576,2.576,0,0,1,.242.414C79.973,21.36,80.007,21.533,80.007,21.705Z" transform="translate(-76.9 -17.527)" fill="#fff"/>
          <path id="Path_124" data-name="Path 124" d="M91.46,24.068a2.089,2.089,0,0,1-.138.829,2.5,2.5,0,0,1-.38.656,1.805,1.805,0,0,1-.587.414,1.858,1.858,0,0,1-.76.138,1.6,1.6,0,0,1-.725-.138,1.662,1.662,0,0,1-.552-.414,1.88,1.88,0,0,1-.38-.621,2.026,2.026,0,0,1-.138-.794,2.2,2.2,0,0,1,.138-.829,2.5,2.5,0,0,1,.38-.656,1.406,1.406,0,0,1,.587-.414,1.858,1.858,0,0,1,.76-.138,1.6,1.6,0,0,1,.725.138,1.662,1.662,0,0,1,.552.414,1.381,1.381,0,0,1,.345.621A2.193,2.193,0,0,1,91.46,24.068ZM90.8,24.1a3.04,3.04,0,0,0-.069-.587,2.109,2.109,0,0,0-.242-.483,1.079,1.079,0,0,0-.38-.311,1.18,1.18,0,0,0-.967,0,1.079,1.079,0,0,0-.38.311,2.109,2.109,0,0,0-.242.483,1.714,1.714,0,0,0-.069.621,1.613,1.613,0,0,0,.1.587,2.109,2.109,0,0,0,.242.483,1.81,1.81,0,0,0,.38.345,1.124,1.124,0,0,0,.483.138,1.1,1.1,0,0,0,.483-.1.9.9,0,0,0,.38-.345,2.109,2.109,0,0,0,.242-.483A4.4,4.4,0,0,0,90.8,24.1Z" transform="translate(-84.036 -20.408)" fill="#fff"/>
          <path id="Path_125" data-name="Path 125" d="M101.587,22.828H101V17.2h.587Z" transform="translate(-92.679 -17.2)" fill="#fff"/>
          <path id="Path_126" data-name="Path 126" d="M108.59,26.3v-.621h-.069a1.344,1.344,0,0,1-1.243.725,1.091,1.091,0,0,1-.932-.414A2.05,2.05,0,0,1,106,24.744V22.5h.587v2.141c0,.863.276,1.278.863,1.278a1.241,1.241,0,0,0,.38-.069.98.98,0,0,0,.311-.207.716.716,0,0,0,.207-.345.876.876,0,0,0,.069-.414V22.5H109v3.349a2.613,2.613,0,0,0,.035.518h-.449Z" transform="translate(-95.953 -20.67)" fill="#fff"/>
          <path id="Path_127" data-name="Path 127" d="M119.375,21.147h-1v2.175c0,.518.173.76.518.76a1.288,1.288,0,0,0,.414-.069l.035.483a1.488,1.488,0,0,1-.587.1.989.989,0,0,1-.725-.276,1.477,1.477,0,0,1-.242-.967V21.181H117.2V20.7h.587v-.691l.587-.207v.9h1Z" transform="translate(-103.285 -18.902)" fill="#fff"/>
          <path id="Path_128" data-name="Path 128" d="M126.294,18.314a.482.482,0,0,1-.1.311.422.422,0,0,1-.311.1.392.392,0,0,1-.276-.1.422.422,0,0,1-.1-.311.557.557,0,0,1,.1-.311.392.392,0,0,1,.276-.1.482.482,0,0,1,.311.1A.422.422,0,0,1,126.294,18.314Zm-.1,4.972H125.6V19.454h.587Z" transform="translate(-108.72 -17.658)" fill="#fff"/>
          <path id="Path_129" data-name="Path 129" d="M133.66,24.068a2.089,2.089,0,0,1-.138.829,2.5,2.5,0,0,1-.38.656,1.805,1.805,0,0,1-.587.414,1.858,1.858,0,0,1-.76.138,1.6,1.6,0,0,1-.725-.138,1.662,1.662,0,0,1-.552-.414,1.879,1.879,0,0,1-.38-.621,2.026,2.026,0,0,1-.138-.794,2.2,2.2,0,0,1,.138-.829,2.5,2.5,0,0,1,.38-.656,1.406,1.406,0,0,1,.587-.414,1.858,1.858,0,0,1,.76-.138,1.6,1.6,0,0,1,.725.138,1.662,1.662,0,0,1,.552.414,1.381,1.381,0,0,1,.345.621A1.655,1.655,0,0,1,133.66,24.068Zm-.621.035a3.04,3.04,0,0,0-.069-.587,2.109,2.109,0,0,0-.242-.483,1.079,1.079,0,0,0-.38-.311,1.18,1.18,0,0,0-.967,0,1.079,1.079,0,0,0-.38.311,2.11,2.11,0,0,0-.242.483,1.715,1.715,0,0,0-.069.621,1.613,1.613,0,0,0,.1.587,2.109,2.109,0,0,0,.242.483,1.81,1.81,0,0,0,.38.345,1.124,1.124,0,0,0,.483.138,1.1,1.1,0,0,0,.483-.1.894.894,0,0,0,.38-.345,2.11,2.11,0,0,0,.242-.483C133,24.517,133.038,24.31,133.038,24.1Z" transform="translate(-111.666 -20.408)" fill="#fff"/>
          <path id="Path_130" data-name="Path 130" d="M146.307,26.036h-.622V23.792c0-.794-.311-1.174-.9-1.174a1.241,1.241,0,0,0-.38.069.7.7,0,0,0-.311.242.716.716,0,0,0-.207.345.876.876,0,0,0-.069.414v2.348h-.587V22.722a2.614,2.614,0,0,0-.035-.518h.552v.621h.069a1.368,1.368,0,0,1,1.243-.725,1.2,1.2,0,0,1,.967.414,1.763,1.763,0,0,1,.345,1.174v2.348h-.069Z" transform="translate(-120.308 -20.408)" fill="#fff"/>
          <path id="Path_131" data-name="Path 131" d="M164.1,23.352h-2.9V18h2.762v.483h-2.175v1.8h2.037v.483h-2.037V22.8h2.279l.035.552Z" transform="translate(-132.093 -17.724)" fill="#fff"/>
          <path id="Path_132" data-name="Path 132" d="M173.949,26.167h-.691l-.587-.9a1.241,1.241,0,0,1-.173-.311c-.069-.1-.138-.242-.242-.38h-.035a2.047,2.047,0,0,0-.138.276c-.069.1-.138.242-.242.414l-.587.9H170.6l1.347-1.968-1.278-1.9h.691l.552.863a2.5,2.5,0,0,1,.173.311,3.034,3.034,0,0,1,.207.345h0a2.5,2.5,0,0,0,.173-.311c.069-.138.138-.207.207-.345l.552-.863h.656L172.6,24.164Z" transform="translate(-138.248 -20.539)" fill="#fff"/>
          <path id="Path_133" data-name="Path 133" d="M185.822,24a2.089,2.089,0,0,1-.138.829,2.927,2.927,0,0,1-.345.656,1.662,1.662,0,0,1-.552.414,1.546,1.546,0,0,1-.691.138,1.244,1.244,0,0,1-1.174-.621h0v2.106h-.587v-4.8a3.752,3.752,0,0,0-.035-.621h.552v.656h.035a1.459,1.459,0,0,1,1.347-.76,1.182,1.182,0,0,1,.621.138,2.011,2.011,0,0,1,.518.38,2.651,2.651,0,0,1,.345.621A3.916,3.916,0,0,1,185.822,24Zm-.622.035a3.04,3.04,0,0,0-.069-.587,1.275,1.275,0,0,0-.242-.483.844.844,0,0,0-.38-.311,1.1,1.1,0,0,0-.483-.1.919.919,0,0,0-.414.1,1.24,1.24,0,0,0-.345.242.894.894,0,0,0-.242.38,1.1,1.1,0,0,0-.1.483v.691a1.749,1.749,0,0,0,.069.449.789.789,0,0,0,.242.345,1.24,1.24,0,0,0,.345.242.956.956,0,0,0,.449.1,1,1,0,0,0,.863-.414A1.932,1.932,0,0,0,185.2,24.037Z" transform="translate(-145.908 -20.343)" fill="#fff"/>
          <path id="Path_134" data-name="Path 134" d="M197.415,23.961a.766.766,0,0,1-.035.311h-2.659a1.725,1.725,0,0,0,.345,1.07,1.3,1.3,0,0,0,.967.38,2.523,2.523,0,0,0,1.036-.207l.1.449a2.756,2.756,0,0,1-1.243.242,1.756,1.756,0,0,1-.76-.138,1.806,1.806,0,0,1-.587-.414,1.381,1.381,0,0,1-.345-.621,2.72,2.72,0,0,1-.138-.794,2.089,2.089,0,0,1,.138-.829,1.98,1.98,0,0,1,.345-.656,1.662,1.662,0,0,1,.552-.414,1.6,1.6,0,0,1,.725-.138,1.4,1.4,0,0,1,.656.138,1.679,1.679,0,0,1,.483.38,1.751,1.751,0,0,1,.311.552A2.076,2.076,0,0,1,197.415,23.961Zm-.587-.138a1.287,1.287,0,0,0-.242-.863.892.892,0,0,0-.725-.311.826.826,0,0,0-.725.345,1.4,1.4,0,0,0-.345.863l2.037-.035Z" transform="translate(-153.634 -20.474)" fill="#fff"/>
          <path id="Path_135" data-name="Path 135" d="M208.1,22.852h-.207a.7.7,0,0,0-.38.1,1.119,1.119,0,0,0-.311.276,2.3,2.3,0,0,0-.207.414,2.35,2.35,0,0,0-.069.518v2.072h-.587V22.991a3.35,3.35,0,0,0-.035-.587h.518v.76h.035a1.959,1.959,0,0,1,.414-.621,1.09,1.09,0,0,1,.656-.242h.173v.552Z" transform="translate(-161.621 -20.539)" fill="#fff"/>
          <path id="Path_136" data-name="Path 136" d="M214.975,21.147h-1v2.175c0,.518.173.76.518.76a1.288,1.288,0,0,0,.414-.069l.035.483a1.488,1.488,0,0,1-.587.1.989.989,0,0,1-.725-.276,1.477,1.477,0,0,1-.242-.967V21.181H212.8V20.7h.587v-.691l.587-.207v.9h1Z" transform="translate(-165.877 -18.902)" fill="#fff"/>
        </g>
        <path id="Path_137" data-name="Path 137" d="M17.848,15.921a12.237,12.237,0,0,1-1.519,3.107c-.9,1.347-1.864,2.659-3.349,2.693-1.45.035-1.934-.863-3.591-.863s-2.21.829-3.591.9c-1.45.069-2.521-1.45-3.453-2.762C.48,16.3-.97,11.329.964,8.014A5.365,5.365,0,0,1,5.487,5.286c1.416-.035,2.728.932,3.591.932s2.486-1.174,4.178-1a5.107,5.107,0,0,1,4.005,2.175,4.9,4.9,0,0,0-2.348,4.143,4.887,4.887,0,0,0,2.935,4.385m-5.7-12.533A4.85,4.85,0,0,0,13.29-.1,4.847,4.847,0,0,0,8.905,4.941,4.09,4.09,0,0,0,12.151,3.387Z" transform="translate(15.342 0.1)" fill="#fff"/>
        <g id="Group_280" data-name="Group 280" transform="translate(13.192 37.433)">
          <path id="Path_138" data-name="Path 138" d="M79.779,51.86H77.5V48.2h2.279v.414h-1.83v1.174h1.726V50.2H77.949v1.243h1.83Z" transform="translate(-77.5 -48.062)" fill="#fff"/>
          <path id="Path_139" data-name="Path 139" d="M85.6,50.382c0-.829.449-1.381,1.139-1.381a.946.946,0,0,1,.863.483h.035V48h.449v3.763h-.449v-.449H87.6a.946.946,0,0,1-.863.483A1.253,1.253,0,0,1,85.6,50.382Zm.449,0c0,.621.311,1,.794,1s.794-.38.794-1c0-.587-.311-1-.794-1S86.049,49.8,86.049,50.382Z" transform="translate(-82.803 -47.931)" fill="#fff"/>
          <path id="Path_140" data-name="Path 140" d="M96.979,53.693H96.53v-.449H96.5a.876.876,0,0,1-.863.483.891.891,0,0,1-.932-1V51h.449v1.657c0,.449.207.691.621.691a.681.681,0,0,0,.725-.76V51h.449v2.693Z" transform="translate(-88.761 -49.895)" fill="#fff"/>
          <path id="Path_141" data-name="Path 141" d="M104.834,51.863a.658.658,0,0,0-.691-.483c-.483,0-.794.38-.794,1s.311,1,.794,1a.627.627,0,0,0,.691-.483h.449a1.075,1.075,0,0,1-1.139.9,1.408,1.408,0,0,1,0-2.8,1.078,1.078,0,0,1,1.139.9h-.449Z" transform="translate(-94.13 -49.895)" fill="#fff"/>
          <path id="Path_142" data-name="Path 142" d="M110.9,52.868c0-.483.345-.76,1-.794l.794-.035V51.8c0-.311-.207-.518-.587-.518a.592.592,0,0,0-.621.38h-.449c.035-.449.483-.76,1.07-.76.656,0,1.036.345,1.036.9v1.864h-.414v-.449h-.069a.946.946,0,0,1-.863.483A.817.817,0,0,1,110.9,52.868Zm1.8-.242v-.242l-.725.035c-.38.035-.587.173-.587.449s.242.414.552.414A.684.684,0,0,0,112.7,52.626Z" transform="translate(-99.368 -49.83)" fill="#fff"/>
          <path id="Path_143" data-name="Path 143" d="M119.463,49v.691h.552v.38h-.552v1.554c0,.276.1.414.38.414h.207v.38c-.069,0-.173.035-.276.035-.518,0-.76-.207-.76-.725V50.1H118.6v-.414h.414V49Z" transform="translate(-104.409 -48.586)" fill="#fff"/>
          <path id="Path_144" data-name="Path 144" d="M124.3,48.111a.311.311,0,1,1,.311.311Q124.3,48.37,124.3,48.111Zm.069.794h.449V51.6h-.449Z" transform="translate(-108.141 -47.8)" fill="#fff"/>
          <path id="Path_145" data-name="Path 145" d="M127.5,52.281a1.25,1.25,0,1,1,1.243,1.381A1.22,1.22,0,0,1,127.5,52.281Zm2.037,0c0-.621-.276-1-.794-1s-.794.38-.794,1,.276,1,.794,1S129.537,52.9,129.537,52.281Z" transform="translate(-110.236 -49.83)" fill="#fff"/>
          <path id="Path_146" data-name="Path 146" d="M136.4,50.935h.414v.449h.035a.827.827,0,0,1,.829-.483.891.891,0,0,1,.932,1v1.761h-.449V52c0-.449-.207-.691-.621-.691a.691.691,0,0,0-.691.76v1.588H136.4Z" transform="translate(-116.063 -49.83)" fill="#fff"/>
        </g>
      </g>
    </g>
  </g>
</svg>
